#!OML:ASF H:\Terrain\Patient Classification 1\Takeo\Monday\TakeoMonday.ASF
:FULLY-SPECIFIED
:DEGREES
1449
root 10.7366 16.6909 -1.40026 5.53928 -19.6032 -1.67063
lowerback 27.0875 2.14736 1.62769
upperback 12.1353 2.738 -2.63843
thorax -1.21417 1.41417 -4.54643
lowerneck -14.2503 -1.22125 -4.72809
upperneck -14.1477 -0.994157 1.81874
head -2.13005 -0.324155 1.35824
rclavicle 9.14409e-015 -1.98785e-014
rhumerus -3.62962 27.403 -75.5425
rradius 88.3128
rwrist 7.52656
rhand -39.0111 43.521
rfingers 7.12502
rthumb -12.0143 13.8859
lclavicle 9.14409e-015 -1.98785e-014
lhumerus -20.2386 -13.0031 90.9273
lradius 103.168
lwrist 19.9201
lhand -28.5792 0.758979
lfingers 7.12502
lthumb -1.94529 30.7299
rfemur -25.1185 -21.5483 23.1867
rtibia 51.8544
rfoot -31.8413 -26.7558
rtoes -7.27225
lfemur -40.6954 10.6052 -21.1461
ltibia 49.1527
lfoot -12.515 12.4199
ltoes -0.992945
1450
root 10.7553 16.6868 -1.4002 5.1521 -21.1833 -1.70511
lowerback 26.9737 2.28157 1.57008
upperback 12.2343 2.87752 -2.59732
thorax -1.04315 1.47618 -4.49628
lowerneck -14.6093 -0.683136 -3.88125
upperneck -13.9746 -0.445557 0.800872
head -2.03244 -0.0822475 0.892678
rclavicle -8.34896e-015 -4.53229e-014
rhumerus -5.42163 27.7448 -76.7583
rradius 88.7599
rwrist 7.4815
rhand -38.8896 43.8158
rfingers 7.12502
rthumb -11.8972 14.1738
lclavicle -8.34896e-015 -4.53229e-014
lhumerus -19.9186 -13.0595 90.8365
lradius 103.293
lwrist 19.6394
lhand -29.108 0.65192
lfingers 7.12502
lthumb -2.45597 30.6175
rfemur -24.823 -20.7766 22.868
rtibia 51.9251
rfoot -31.4511 -25.9722
rtoes -7.6124
lfemur -40.2045 11.4558 -20.9435
ltibia 49.4876
lfoot -12.999 12.9608
ltoes -0.929968
1451
root 10.779 16.6745 -1.39825 4.90523 -22.6247 -1.52188
lowerback 26.7347 2.31112 1.52427
upperback 12.27 2.88596 -2.68751
thorax -0.8878 1.4789 -4.55793
lowerneck -14.9772 -0.189625 -3.04029
upperneck -13.7731 0.0473342 -0.107485
head -1.9149 0.128674 0.471412
rclavicle -3.37934e-014 5.20816e-014
rhumerus -7.17349 27.9847 -77.9054
rradius 89.2211
rwrist 7.57307
rhand -38.4305 43.9331
rfingers 7.12502
rthumb -11.4544 14.266
lclavicle -3.37934e-014 5.20816e-014
lhumerus -19.605 -13.184 90.5398
lradius 103.18
lwrist 19.6206
lhand -29.2077 0.891687
lfingers 7.12502
lthumb -2.55227 30.8562
rfemur -24.8282 -20.0462 22.3987
rtibia 52.0574
rfoot -31.0244 -25.0387
rtoes -7.63298
lfemur -39.942 12.1808 -21.1211
ltibia 49.8455
lfoot -13.2026 13.7475
ltoes -2.68398
1452
root 10.8053 16.6605 -1.40032 4.63374 -23.895 -1.29941
lowerback 26.6296 2.22973 1.50876
upperback 12.2174 2.76556 -2.72085
thorax -0.907793 1.4133 -4.55058
lowerneck -14.8763 0.200161 -2.7021
upperneck -13.7774 0.470175 -0.703753
head -1.93434 0.327584 0.237058
rclavicle -5.56597e-015 8.74653e-015
rhumerus -8.88815 28.2762 -78.8088
rradius 89.4231
rwrist 8.3078
rhand -38.3542 44.2213
rfingers 7.12502
rthumb -11.3809 14.5501
lclavicle -5.56597e-015 8.74653e-015
lhumerus -19.5568 -13.0667 90.4009
lradius 103.155
lwrist 19.6205
lhand -29.102 1.37088
lfingers 7.12502
lthumb -2.45022 31.3366
rfemur -24.8903 -19.4581 21.9304
rtibia 52.2324
rfoot -30.3166 -24.2602
rtoes -8.2332
lfemur -39.7012 12.6538 -21.2704
ltibia 50.2311
lfoot -13.7215 14.4566
ltoes -3.48413
1453
root 10.8275 16.6447 -1.4017 4.52657 -25.1193 -1.3627
lowerback 26.4765 2.13742 1.71707
upperback 12.1186 2.68832 -2.66544
thorax -0.946114 1.37482 -4.58443
lowerneck -14.9738 0.520434 -2.55515
upperneck -13.5126 0.854439 -1.07985
head -1.83229 0.510925 0.104577
rclavicle -1.63003e-014 -7.95139e-016
rhumerus -10.5498 28.4414 -79.6853
rradius 89.4167
rwrist 9.26308
rhand -38.5901 44.868
rfingers 7.12502
rthumb -11.6084 15.2096
lclavicle -1.63003e-014 -7.95139e-016
lhumerus -19.5328 -13.0162 90.353
lradius 103.203
lwrist 19.665
lhand -29.1883 1.33665
lfingers 7.12502
lthumb -2.53357 31.3014
rfemur -25.0336 -18.8917 21.8365
rtibia 52.451
rfoot -29.5638 -23.8284
rtoes -8.90105
lfemur -39.5716 12.9286 -21.0092
ltibia 50.6536
lfoot -14.4572 15.0513
ltoes -1.56012
